#N canvas 395 222 791 526 10;
#X obj 201 99 phasor~;
#N canvas 562 253 538 373 sine 0;
#X obj 92 47 inlet~;
#X obj 92 69 cos~;
#X obj 92 91 outlet~;
#X obj 228 27 r mtx_msg;
#X obj 262 71 unpack;
#X obj 228 49 list split 2;
#X obj 262 173 spigot;
#X obj 262 103 ==;
#X obj 308 86 r \$0-first_inlet;
#X obj 262 196 sel 0;
#X obj 262 218 del 20;
#X msg 262 240 0;
#X obj 262 267 switch~;
#X obj 262 148 f;
#X obj 262 125 t b f;
#X connect 0 0 1 0;
#X connect 1 0 2 0;
#X connect 3 0 5 0;
#X connect 4 0 7 0;
#X connect 4 1 13 1;
#X connect 5 1 4 0;
#X connect 6 0 9 0;
#X connect 7 0 14 0;
#X connect 8 0 7 1;
#X connect 9 0 10 0;
#X connect 9 1 12 0;
#X connect 10 0 11 0;
#X connect 11 0 12 0;
#X connect 13 0 6 0;
#X connect 14 0 13 0;
#X connect 14 1 6 1;
#X restore 52 207 pd sine;
#N canvas 643 170 472 399 triangle 0;
#X obj 82 47 inlet~;
#X obj 82 191 outlet~;
#X obj 103 74 *~ -1;
#X obj 103 96 +~ 1;
#X obj 82 122 min~;
#X obj 82 144 *~ 4;
#X obj 82 166 -~ 1;
#X obj 228 37 r mtx_msg;
#X obj 262 81 unpack;
#X obj 228 59 list split 2;
#X obj 262 183 spigot;
#X obj 262 113 ==;
#X obj 312 74 r \$0-first_inlet;
#X obj 262 206 sel 0;
#X obj 262 228 del 20;
#X msg 262 250 0;
#X obj 262 278 switch~;
#X obj 262 158 f;
#X obj 262 135 t b f;
#X obj 312 96 + 1;
#X connect 0 0 2 0;
#X connect 0 0 4 0;
#X connect 2 0 3 0;
#X connect 3 0 4 1;
#X connect 4 0 5 0;
#X connect 5 0 6 0;
#X connect 6 0 1 0;
#X connect 7 0 9 0;
#X connect 8 0 11 0;
#X connect 8 1 17 1;
#X connect 9 1 8 0;
#X connect 10 0 13 0;
#X connect 11 0 18 0;
#X connect 12 0 19 0;
#X connect 13 0 14 0;
#X connect 13 1 16 0;
#X connect 14 0 15 0;
#X connect 15 0 16 0;
#X connect 17 0 10 0;
#X connect 18 0 17 0;
#X connect 18 1 10 1;
#X connect 19 0 11 1;
#X restore 152 207 pd triangle;
#X obj 201 121 +~;
#X obj 201 143 wrap~;
#N canvas 0 22 483 407 sawtooth 0;
#X obj 82 47 inlet~;
#X obj 82 121 outlet~;
#X obj 82 96 -~ 1;
#X obj 82 74 *~ 2;
#X obj 188 37 r mtx_msg;
#X obj 222 81 unpack;
#X obj 188 59 list split 2;
#X obj 222 183 spigot;
#X obj 222 113 ==;
#X obj 272 74 r \$0-first_inlet;
#X obj 222 206 sel 0;
#X obj 222 228 del 20;
#X msg 222 250 0;
#X obj 222 278 switch~;
#X obj 222 158 f;
#X obj 222 135 t b f;
#X obj 272 96 + 2;
#X connect 0 0 3 0;
#X connect 2 0 1 0;
#X connect 3 0 2 0;
#X connect 4 0 6 0;
#X connect 5 0 8 0;
#X connect 5 1 14 1;
#X connect 6 1 5 0;
#X connect 7 0 10 0;
#X connect 8 0 15 0;
#X connect 9 0 16 0;
#X connect 10 0 11 0;
#X connect 10 1 13 0;
#X connect 11 0 12 0;
#X connect 12 0 13 0;
#X connect 14 0 7 0;
#X connect 15 0 14 0;
#X connect 15 1 7 1;
#X connect 16 0 8 1;
#X restore 262 207 pd sawtooth;
#N canvas 0 22 543 390 square 0;
#X obj 82 70 inlet~;
#X obj 82 194 outlet~;
#X obj 82 169 -~ 1;
#X obj 82 147 *~ 2;
#X obj 82 123 >~;
#X obj 131 39 r duty_cycle;
#X obj 131 84 pack f 20;
#X obj 131 106 line~;
#X obj 248 37 r mtx_msg;
#X obj 282 81 unpack;
#X obj 248 59 list split 2;
#X obj 282 183 spigot;
#X obj 282 113 ==;
#X obj 332 74 r \$0-first_inlet;
#X obj 282 206 sel 0;
#X obj 282 228 del 20;
#X msg 282 250 0;
#X obj 282 279 switch~;
#X obj 282 158 f;
#X obj 282 135 t b f;
#X obj 332 96 + 3;
#X obj 131 61 map 0 1023 0 1;
#X connect 0 0 4 0;
#X connect 2 0 1 0;
#X connect 3 0 2 0;
#X connect 4 0 3 0;
#X connect 5 0 21 0;
#X connect 6 0 7 0;
#X connect 7 0 4 1;
#X connect 8 0 10 0;
#X connect 9 0 12 0;
#X connect 9 1 18 1;
#X connect 10 1 9 0;
#X connect 11 0 14 0;
#X connect 12 0 19 0;
#X connect 13 0 20 0;
#X connect 14 0 15 0;
#X connect 14 1 17 0;
#X connect 15 0 16 0;
#X connect 16 0 17 0;
#X connect 18 0 11 0;
#X connect 19 0 18 0;
#X connect 19 1 11 1;
#X connect 20 0 12 1;
#X connect 21 0 6 0;
#X restore 372 207 pd square;
#X obj 346 55 r~ osc1_phase;
#X obj 52 426 outlet~;
#X obj 346 104 *~;
#X obj 52 290 *~;
#X obj 152 290 *~;
#X obj 262 290 *~;
#X obj 372 290 *~;
#N canvas 367 233 466 480 choose_amp_input 0;
#X obj 86 162 pack f 20;
#X obj 86 184 line~;
#X obj 86 349 *~;
#X obj 254 262 r~ osc1_amp_sig;
#X obj 86 117 r osc1_amp_pot;
#X obj 202 223 t f f;
#X obj 101 281 == 0;
#X obj 101 303 pack f 20;
#X obj 101 325 line~;
#X obj 214 349 *~;
#X obj 229 303 pack f 20;
#X obj 229 325 line~;
#X obj 86 411 outlet~;
#X obj 168 15 r mtx_msg;
#X obj 168 37 list split 1;
#X obj 202 59 list split 1;
#X obj 202 155 ==;
#X obj 217 109 r \$0-first_outlet;
#X obj 217 131 + 2;
#X obj 214 279 *~;
#X obj 86 139 map 0 1023 0 1;
#X obj 236 80 unpack;
#X obj 202 177 sel 1;
#X obj 202 199 f;
#X obj 230 199 loadbang;
#X connect 0 0 1 0;
#X connect 1 0 2 0;
#X connect 1 0 19 0;
#X connect 2 0 12 0;
#X connect 3 0 19 1;
#X connect 4 0 20 0;
#X connect 5 0 6 0;
#X connect 5 1 10 0;
#X connect 6 0 7 0;
#X connect 7 0 8 0;
#X connect 8 0 2 1;
#X connect 9 0 12 0;
#X connect 10 0 11 0;
#X connect 11 0 9 1;
#X connect 13 0 14 0;
#X connect 14 1 15 0;
#X connect 15 0 16 0;
#X connect 15 1 21 0;
#X connect 16 0 22 0;
#X connect 17 0 18 0;
#X connect 18 0 16 1;
#X connect 19 0 9 0;
#X connect 20 0 0 0;
#X connect 21 1 23 1;
#X connect 22 0 23 0;
#X connect 23 0 5 0;
#X connect 24 0 23 0;
#X restore 387 234 pd choose_amp_input;
#N canvas 779 166 420 514 choose_ndx_input 0;
#X obj 86 225 pack f 20;
#X obj 86 247 line~;
#X obj 86 369 *~;
#X obj 232 225 t f f;
#X obj 101 301 == 0;
#X obj 101 323 pack f 20;
#X obj 101 345 line~;
#X obj 244 369 *~;
#X obj 259 323 pack f 20;
#X obj 259 345 line~;
#X obj 86 431 outlet~;
#X obj 274 281 r~ osc1_ndx_sig;
#X obj 198 19 r mtx_msg;
#X obj 198 41 list split 1;
#X obj 232 63 list split 1;
#X obj 232 159 ==;
#X obj 247 113 r \$0-first_outlet;
#X obj 247 135 + 1;
#X obj 86 180 r osc1_ndx_pot;
#X obj 244 298 *~;
#X obj 86 202 map 0 1023 0 2;
#X obj 266 85 unpack;
#X obj 232 181 sel 1;
#X obj 232 203 f;
#X obj 258 202 loadbang;
#X connect 0 0 1 0;
#X connect 1 0 2 0;
#X connect 1 0 19 0;
#X connect 2 0 10 0;
#X connect 3 0 4 0;
#X connect 3 1 8 0;
#X connect 4 0 5 0;
#X connect 5 0 6 0;
#X connect 6 0 2 1;
#X connect 7 0 10 0;
#X connect 8 0 9 0;
#X connect 9 0 7 1;
#X connect 11 0 19 1;
#X connect 12 0 13 0;
#X connect 13 1 14 0;
#X connect 14 0 15 0;
#X connect 14 1 21 0;
#X connect 15 0 22 0;
#X connect 16 0 17 0;
#X connect 17 0 15 1;
#X connect 18 0 20 0;
#X connect 19 0 7 0;
#X connect 20 0 0 0;
#X connect 21 1 23 1;
#X connect 22 0 23 0;
#X connect 23 0 3 0;
#X connect 24 0 23 0;
#X restore 361 80 pd choose_ndx_input;
#X obj 52 352 *~;
#X obj 52 399 +~;
#X obj 67 329 r \$0-scale;
#X obj 67 376 r \$0-offset;
#X obj 152 426 outlet~;
#X obj 152 352 *~;
#X obj 152 399 +~;
#X obj 167 329 r \$0-scale;
#X obj 167 376 r \$0-offset;
#X obj 262 426 outlet~;
#X obj 262 352 *~;
#X obj 262 399 +~;
#X obj 277 329 r \$0-scale;
#X obj 277 376 r \$0-offset;
#X obj 372 426 outlet~;
#X obj 372 352 *~;
#X obj 372 399 +~;
#X obj 387 329 r \$0-scale;
#X obj 387 376 r \$0-offset;
#N canvas 396 54 687 529 get_inlet_outlet_switch 0;
#X obj 481 54 r osc1_scale_offset;
#X obj 481 77 t f f;
#X obj 481 145 s \$0-scale;
#X obj 548 117 s \$0-offset;
#X obj 548 94 * 0.5;
#X obj 481 100 * -0.5;
#X obj 481 122 + 1;
#X obj 493 290 loadbang;
#X obj 493 312 t b b;
#X obj 493 384 \$1;
#X obj 493 406 s \$0-first_inlet;
#X obj 520 334 \$2;
#X obj 520 356 s \$0-first_outlet;
#X obj 33 68 r mtx_msg;
#X obj 33 90 list split 2;
#X obj 67 116 unpack;
#X obj 108 155 r \$0-first_inlet;
#X obj 67 282 f;
#X obj 108 177 t f f;
#X obj 67 194 >=;
#X obj 120 221 <=;
#X obj 67 238 &&;
#X obj 67 260 t b f;
#X obj 67 304 spigot;
#X obj 67 326 * 2;
#X obj 67 348 - 1;
#X obj 67 370 +;
#X obj 67 392 clip 0 100;
#X obj 67 437 outlet;
#X text 146 221 check if an outlet of this module (inlet for the matrix)
is being connected or disconnected;
#X text 98 371 accumulate connections to determine [switch~] state
;
#X obj 67 138 t f f;
#X obj 135 199 + 3;
#X obj 67 414 t f f;
#X connect 0 0 1 0;
#X connect 1 0 5 0;
#X connect 1 1 4 0;
#X connect 4 0 3 0;
#X connect 5 0 6 0;
#X connect 6 0 2 0;
#X connect 7 0 8 0;
#X connect 8 0 9 0;
#X connect 8 1 11 0;
#X connect 9 0 10 0;
#X connect 11 0 12 0;
#X connect 13 0 14 0;
#X connect 14 1 15 0;
#X connect 15 0 31 0;
#X connect 15 1 17 1;
#X connect 16 0 18 0;
#X connect 17 0 23 0;
#X connect 18 0 19 1;
#X connect 18 1 32 0;
#X connect 19 0 21 0;
#X connect 20 0 21 1;
#X connect 21 0 22 0;
#X connect 22 0 17 0;
#X connect 22 1 23 1;
#X connect 23 0 24 0;
#X connect 24 0 25 0;
#X connect 25 0 26 0;
#X connect 26 0 27 0;
#X connect 27 0 33 0;
#X connect 31 0 19 0;
#X connect 31 1 20 0;
#X connect 32 0 20 1;
#X connect 33 0 28 0;
#X connect 33 1 26 1;
#X restore 529 131 pd get_inlet_outlet_switch;
#X obj 529 174 sel 0;
#X obj 529 195 del 20;
#X msg 529 240 0;
#X obj 529 262 switch~;
#X obj 201 33 r osc1_freq;
#X obj 201 55 pack f 20;
#X obj 201 77 line~;
#X obj 529 153 t f f;
#X obj 529 218 spigot;
#X obj 575 201 == 0;
#X connect 0 0 3 0;
#X connect 1 0 10 0;
#X connect 2 0 11 0;
#X connect 3 0 4 0;
#X connect 4 0 1 0;
#X connect 4 0 2 0;
#X connect 4 0 5 0;
#X connect 4 0 6 0;
#X connect 5 0 12 0;
#X connect 6 0 13 0;
#X connect 7 0 9 0;
#X connect 9 0 3 1;
#X connect 10 0 16 0;
#X connect 11 0 21 0;
#X connect 12 0 26 0;
#X connect 13 0 31 0;
#X connect 14 0 13 1;
#X connect 14 0 12 1;
#X connect 14 0 11 1;
#X connect 14 0 10 1;
#X connect 15 0 9 1;
#X connect 16 0 17 0;
#X connect 17 0 8 0;
#X connect 18 0 16 1;
#X connect 19 0 17 1;
#X connect 21 0 22 0;
#X connect 22 0 20 0;
#X connect 23 0 21 1;
#X connect 24 0 22 1;
#X connect 26 0 27 0;
#X connect 27 0 25 0;
#X connect 28 0 26 1;
#X connect 29 0 27 1;
#X connect 31 0 32 0;
#X connect 32 0 30 0;
#X connect 33 0 31 1;
#X connect 34 0 32 1;
#X connect 35 0 43 0;
#X connect 36 0 37 0;
#X connect 36 1 39 0;
#X connect 37 0 44 0;
#X connect 38 0 39 0;
#X connect 40 0 41 0;
#X connect 41 0 42 0;
#X connect 42 0 0 0;
#X connect 43 0 36 0;
#X connect 43 1 45 0;
#X connect 44 0 38 0;
#X connect 45 0 44 1;
