#N canvas 192 130 791 526 10;
#X obj 201 99 phasor~;
#X obj 201 121 +~;
#X obj 201 143 wrap~;
#X obj 52 466 outlet~;
#X obj 346 104 *~;
#X obj 52 330 *~;
#X obj 152 330 *~;
#X obj 262 330 *~;
#X obj 372 330 *~;
#N canvas 539 168 419 481 choose_amp_input 0;
#X obj 86 172 pack f 20;
#X obj 86 194 line~;
#X obj 86 359 *~;
#X obj 202 233 t f f;
#X obj 101 291 == 0;
#X obj 101 313 pack f 20;
#X obj 101 335 line~;
#X obj 214 359 *~;
#X obj 229 313 pack f 20;
#X obj 229 335 line~;
#X obj 86 421 outlet~;
#X obj 168 24 r mtx_msg;
#X obj 168 46 list split 1;
#X obj 202 68 list split 1;
#X obj 202 164 ==;
#X obj 217 118 r \$0-first_outlet;
#X obj 217 140 + 2;
#X obj 214 289 *~;
#X obj 86 127 r osc2_amp_pot;
#X obj 254 272 r~ osc2_amp_sig;
#X obj 86 149 map 0 1023 0 1;
#X obj 236 90 unpack;
#X obj 202 186 sel 1;
#X obj 202 208 f;
#X obj 228 208 loadbang;
#X connect 0 0 1 0;
#X connect 1 0 2 0;
#X connect 1 0 17 0;
#X connect 2 0 10 0;
#X connect 3 0 4 0;
#X connect 3 1 8 0;
#X connect 4 0 5 0;
#X connect 5 0 6 0;
#X connect 6 0 2 1;
#X connect 7 0 10 0;
#X connect 8 0 9 0;
#X connect 9 0 7 1;
#X connect 11 0 12 0;
#X connect 12 1 13 0;
#X connect 13 0 14 0;
#X connect 13 1 21 0;
#X connect 14 0 22 0;
#X connect 15 0 16 0;
#X connect 16 0 14 1;
#X connect 17 0 7 0;
#X connect 18 0 20 0;
#X connect 19 0 17 1;
#X connect 20 0 0 0;
#X connect 21 1 23 1;
#X connect 22 0 23 0;
#X connect 23 0 3 0;
#X connect 24 0 23 0;
#X restore 387 274 pd choose_amp_input;
#N canvas 440 87 458 518 choose_ndx_input 0;
#X obj 86 244 pack f 20;
#X obj 86 266 line~;
#X obj 86 388 *~;
#X obj 232 242 t f f;
#X obj 101 320 == 0;
#X obj 101 342 pack f 20;
#X obj 101 364 line~;
#X obj 244 388 *~;
#X obj 259 342 pack f 20;
#X obj 259 364 line~;
#X obj 86 450 outlet~;
#X obj 198 32 r mtx_msg;
#X obj 198 54 list split 1;
#X obj 232 76 list split 1;
#X obj 232 172 ==;
#X obj 247 126 r \$0-first_outlet;
#X obj 247 148 + 1;
#X obj 244 317 *~;
#X obj 274 300 r~ osc2_ndx_sig;
#X obj 86 222 r osc2_ndx_pot;
#X obj 266 98 unpack;
#X obj 232 194 sel 1;
#X obj 232 216 f;
#X obj 259 216 loadbang;
#X connect 0 0 1 0;
#X connect 1 0 2 0;
#X connect 1 0 17 0;
#X connect 2 0 10 0;
#X connect 3 0 4 0;
#X connect 3 1 8 0;
#X connect 4 0 5 0;
#X connect 5 0 6 0;
#X connect 6 0 2 1;
#X connect 7 0 10 0;
#X connect 8 0 9 0;
#X connect 9 0 7 1;
#X connect 11 0 12 0;
#X connect 12 1 13 0;
#X connect 13 0 14 0;
#X connect 13 1 20 0;
#X connect 14 0 21 0;
#X connect 15 0 16 0;
#X connect 16 0 14 1;
#X connect 17 0 7 0;
#X connect 18 0 17 1;
#X connect 19 0 0 0;
#X connect 20 1 22 1;
#X connect 21 0 22 0;
#X connect 22 0 3 0;
#X connect 23 0 22 0;
#X restore 361 80 pd choose_ndx_input;
#X obj 52 392 *~;
#X obj 52 439 +~;
#X obj 67 369 r \$0-scale;
#X obj 67 416 r \$0-offset;
#X obj 152 466 outlet~;
#X obj 152 392 *~;
#X obj 152 439 +~;
#X obj 167 369 r \$0-scale;
#X obj 167 416 r \$0-offset;
#X obj 262 466 outlet~;
#X obj 262 392 *~;
#X obj 262 439 +~;
#X obj 277 369 r \$0-scale;
#X obj 277 416 r \$0-offset;
#X obj 372 466 outlet~;
#X obj 372 392 *~;
#X obj 372 439 +~;
#X obj 387 369 r \$0-scale;
#X obj 387 416 r \$0-offset;
#N canvas 396 54 687 529 get_inlet_outlet_switch 0;
#X obj 481 77 t f f;
#X obj 481 145 s \$0-scale;
#X obj 548 117 s \$0-offset;
#X obj 548 94 * 0.5;
#X obj 481 100 * -0.5;
#X obj 481 122 + 1;
#X obj 493 290 loadbang;
#X obj 493 312 t b b;
#X obj 493 384 \$1;
#X obj 493 406 s \$0-first_inlet;
#X obj 520 334 \$2;
#X obj 520 356 s \$0-first_outlet;
#X obj 33 68 r mtx_msg;
#X obj 33 90 list split 2;
#X obj 67 116 unpack;
#X obj 108 155 r \$0-first_inlet;
#X obj 67 282 f;
#X obj 108 177 t f f;
#X obj 67 194 >=;
#X obj 120 221 <=;
#X obj 67 238 &&;
#X obj 67 260 t b f;
#X obj 67 304 spigot;
#X obj 67 326 * 2;
#X obj 67 348 - 1;
#X obj 67 370 +;
#X obj 67 392 clip 0 100;
#X obj 67 437 outlet;
#X text 146 221 check if an outlet of this module (inlet for the matrix)
is being connected or disconnected;
#X text 98 369 accumulate connections to determine [switch~] state
;
#X obj 67 138 t f f;
#X obj 135 199 + 3;
#X obj 481 54 r osc2_scale_offset;
#X obj 67 414 t f f;
#X connect 0 0 4 0;
#X connect 0 1 3 0;
#X connect 3 0 2 0;
#X connect 4 0 5 0;
#X connect 5 0 1 0;
#X connect 6 0 7 0;
#X connect 7 0 8 0;
#X connect 7 1 10 0;
#X connect 8 0 9 0;
#X connect 10 0 11 0;
#X connect 12 0 13 0;
#X connect 13 1 14 0;
#X connect 14 0 30 0;
#X connect 14 1 16 1;
#X connect 15 0 17 0;
#X connect 16 0 22 0;
#X connect 17 0 18 1;
#X connect 17 1 31 0;
#X connect 18 0 20 0;
#X connect 19 0 20 1;
#X connect 20 0 21 0;
#X connect 21 0 16 0;
#X connect 21 1 22 1;
#X connect 22 0 23 0;
#X connect 23 0 24 0;
#X connect 24 0 25 0;
#X connect 25 0 26 0;
#X connect 26 0 33 0;
#X connect 30 0 18 0;
#X connect 30 1 19 0;
#X connect 31 0 19 1;
#X connect 32 0 0 0;
#X connect 33 0 27 0;
#X connect 33 1 25 1;
#X restore 529 131 pd get_inlet_outlet_switch;
#X obj 529 176 sel 0;
#X obj 529 198 del 20;
#X msg 529 243 0;
#X obj 529 265 switch~;
#X obj 201 55 pack f 20;
#X obj 201 77 line~;
#N canvas 500 297 508 249 tables 0;
#X obj 303 44 table \$0-triangle;
#X obj 303 66 table \$0-sawtooth;
#X obj 303 88 table \$0-squarewave;
#X obj 303 110 table \$0-impulse;
#X obj 74 22 loadbang;
#X obj 74 88 bl_squarewave \$0-squarewave 2048 40;
#X obj 74 66 bl_sawtooth \$0-sawtooth 2048 40;
#X obj 74 44 bl_triangle \$0-triangle 2048 40;
#X obj 74 110 bl_impulse \$0-impulse 2048 40;
#X connect 4 0 7 0;
#X connect 5 0 8 0;
#X connect 6 0 5 0;
#X connect 7 0 6 0;
#X restore 529 109 pd tables;
#X obj 201 165 *~ 2048;
#X obj 201 187 +~ 1;
#N canvas 562 253 538 373 triangle 0;
#X obj 92 47 inlet~;
#X obj 92 91 outlet~;
#X obj 258 27 r mtx_msg;
#X obj 292 71 unpack;
#X obj 258 49 list split 2;
#X obj 292 173 spigot;
#X obj 292 103 ==;
#X obj 338 86 r \$0-first_inlet;
#X obj 292 196 sel 0;
#X obj 292 218 del 20;
#X msg 292 240 0;
#X obj 292 267 switch~;
#X obj 292 148 f;
#X obj 292 125 t b f;
#X obj 92 69 tabread4~ \$0-triangle;
#X connect 0 0 14 0;
#X connect 2 0 4 0;
#X connect 3 0 6 0;
#X connect 3 1 12 1;
#X connect 4 1 3 0;
#X connect 5 0 8 0;
#X connect 6 0 13 0;
#X connect 7 0 6 1;
#X connect 8 0 9 0;
#X connect 8 1 11 0;
#X connect 9 0 10 0;
#X connect 10 0 11 0;
#X connect 12 0 5 0;
#X connect 13 0 12 0;
#X connect 13 1 5 1;
#X connect 14 0 1 0;
#X restore 52 247 pd triangle;
#N canvas 643 170 472 399 sawtooth 0;
#X obj 82 47 inlet~;
#X obj 82 91 outlet~;
#X obj 228 37 r mtx_msg;
#X obj 262 81 unpack;
#X obj 228 59 list split 2;
#X obj 262 183 spigot;
#X obj 262 113 ==;
#X obj 312 74 r \$0-first_inlet;
#X obj 262 206 sel 0;
#X obj 262 228 del 20;
#X msg 262 250 0;
#X obj 262 278 switch~;
#X obj 262 158 f;
#X obj 262 135 t b f;
#X obj 312 96 + 1;
#X obj 82 69 tabread4~ \$0-sawtooth;
#X connect 0 0 15 0;
#X connect 2 0 4 0;
#X connect 3 0 6 0;
#X connect 3 1 12 1;
#X connect 4 1 3 0;
#X connect 5 0 8 0;
#X connect 6 0 13 0;
#X connect 7 0 14 0;
#X connect 8 0 9 0;
#X connect 8 1 11 0;
#X connect 9 0 10 0;
#X connect 10 0 11 0;
#X connect 12 0 5 0;
#X connect 13 0 12 0;
#X connect 13 1 5 1;
#X connect 14 0 6 1;
#X connect 15 0 1 0;
#X restore 152 247 pd sawtooth;
#N canvas 214 57 483 407 squarewave 0;
#X obj 62 75 inlet~;
#X obj 62 121 outlet~;
#X obj 188 37 r mtx_msg;
#X obj 222 81 unpack;
#X obj 188 59 list split 2;
#X obj 222 183 spigot;
#X obj 222 113 ==;
#X obj 272 74 r \$0-first_inlet;
#X obj 222 206 sel 0;
#X obj 222 228 del 20;
#X msg 222 250 0;
#X obj 222 278 switch~;
#X obj 222 158 f;
#X obj 222 135 t b f;
#X obj 272 96 + 2;
#X obj 62 97 tabread4~ \$0-squarewave;
#X connect 0 0 15 0;
#X connect 2 0 4 0;
#X connect 3 0 6 0;
#X connect 3 1 12 1;
#X connect 4 1 3 0;
#X connect 5 0 8 0;
#X connect 6 0 13 0;
#X connect 7 0 14 0;
#X connect 8 0 9 0;
#X connect 8 1 11 0;
#X connect 9 0 10 0;
#X connect 10 0 11 0;
#X connect 12 0 5 0;
#X connect 13 0 12 0;
#X connect 13 1 5 1;
#X connect 14 0 6 1;
#X connect 15 0 1 0;
#X restore 262 247 pd squarewave;
#N canvas 0 22 543 390 impulse 0;
#X obj 82 47 inlet~;
#X obj 82 91 outlet~;
#X obj 248 37 r mtx_msg;
#X obj 282 81 unpack;
#X obj 248 59 list split 2;
#X obj 282 183 spigot;
#X obj 282 113 ==;
#X obj 332 74 r \$0-first_inlet;
#X obj 282 206 sel 0;
#X obj 282 228 del 20;
#X msg 282 250 0;
#X obj 282 279 switch~;
#X obj 282 158 f;
#X obj 282 135 t b f;
#X obj 332 96 + 3;
#X obj 82 69 tabread4~ \$0-impulse;
#X connect 0 0 15 0;
#X connect 2 0 4 0;
#X connect 3 0 6 0;
#X connect 3 1 12 1;
#X connect 4 1 3 0;
#X connect 5 0 8 0;
#X connect 6 0 13 0;
#X connect 7 0 14 0;
#X connect 8 0 9 0;
#X connect 8 1 11 0;
#X connect 9 0 10 0;
#X connect 10 0 11 0;
#X connect 12 0 5 0;
#X connect 13 0 12 0;
#X connect 13 1 5 1;
#X connect 14 0 6 1;
#X connect 15 0 1 0;
#X restore 372 247 pd impulse;
#X obj 201 10 r osc2_freq;
#X obj 346 56 r~ osc2_phase;
#X obj 529 153 t f f;
#X obj 529 220 spigot;
#X obj 586 203 == 0;
#X obj 201 32 map 0 1023 0 200;
#X connect 0 0 1 0;
#X connect 1 0 2 0;
#X connect 2 0 38 0;
#X connect 4 0 1 1;
#X connect 5 0 11 0;
#X connect 6 0 16 0;
#X connect 7 0 21 0;
#X connect 8 0 26 0;
#X connect 9 0 8 1;
#X connect 9 0 7 1;
#X connect 9 0 6 1;
#X connect 9 0 5 1;
#X connect 10 0 4 1;
#X connect 11 0 12 0;
#X connect 12 0 3 0;
#X connect 13 0 11 1;
#X connect 14 0 12 1;
#X connect 16 0 17 0;
#X connect 17 0 15 0;
#X connect 18 0 16 1;
#X connect 19 0 17 1;
#X connect 21 0 22 0;
#X connect 22 0 20 0;
#X connect 23 0 21 1;
#X connect 24 0 22 1;
#X connect 26 0 27 0;
#X connect 27 0 25 0;
#X connect 28 0 26 1;
#X connect 29 0 27 1;
#X connect 30 0 46 0;
#X connect 31 0 32 0;
#X connect 31 1 34 0;
#X connect 32 0 47 0;
#X connect 33 0 34 0;
#X connect 35 0 36 0;
#X connect 36 0 0 0;
#X connect 38 0 39 0;
#X connect 39 0 40 0;
#X connect 39 0 41 0;
#X connect 39 0 42 0;
#X connect 39 0 43 0;
#X connect 40 0 5 0;
#X connect 41 0 6 0;
#X connect 42 0 7 0;
#X connect 43 0 8 0;
#X connect 44 0 49 0;
#X connect 45 0 4 0;
#X connect 46 0 31 0;
#X connect 46 1 48 0;
#X connect 47 0 33 0;
#X connect 48 0 47 1;
#X connect 49 0 35 0;
