#N canvas 192 130 598 359 10;
#X obj 87 249 outlet~;
#X obj 100 222 outlet~;
#X obj 113 198 outlet~;
#N canvas 396 54 687 529 get_inlet_outlet_switch 0;
#X obj 468 45 loadbang;
#X obj 468 67 t b b;
#X obj 468 139 \$1;
#X obj 468 161 s \$0-first_inlet;
#X obj 495 89 \$2;
#X obj 495 111 s \$0-first_outlet;
#X obj 33 68 r mtx_msg;
#X obj 33 90 list split 2;
#X obj 67 116 unpack;
#X obj 108 155 r \$0-first_inlet;
#X obj 67 282 f;
#X obj 108 177 t f f;
#X obj 67 194 >=;
#X obj 120 221 <=;
#X obj 67 238 &&;
#X obj 67 260 t b f;
#X obj 67 304 spigot;
#X obj 67 326 * 2;
#X obj 67 348 - 1;
#X obj 67 370 +;
#X obj 67 394 clip 0 100;
#X obj 67 437 outlet;
#X text 146 221 check if an outlet of this module (inlet for the matrix)
is being connected or disconnected;
#X text 95 371 accumulate connections to determine [switch~] state
;
#X obj 67 138 t f f;
#X obj 135 199 + 2;
#X obj 67 416 t f f;
#X connect 0 0 1 0;
#X connect 1 0 2 0;
#X connect 1 1 4 0;
#X connect 2 0 3 0;
#X connect 4 0 5 0;
#X connect 6 0 7 0;
#X connect 7 1 8 0;
#X connect 8 0 24 0;
#X connect 8 1 10 1;
#X connect 9 0 11 0;
#X connect 10 0 16 0;
#X connect 11 0 12 1;
#X connect 11 1 25 0;
#X connect 12 0 14 0;
#X connect 13 0 14 1;
#X connect 14 0 15 0;
#X connect 15 0 10 0;
#X connect 15 1 16 1;
#X connect 16 0 17 0;
#X connect 17 0 18 0;
#X connect 18 0 19 0;
#X connect 19 0 20 0;
#X connect 20 0 26 0;
#X connect 24 0 12 0;
#X connect 24 1 13 0;
#X connect 25 0 13 1;
#X connect 26 0 21 0;
#X connect 26 1 19 1;
#X restore 352 104 pd get_inlet_outlet_switch;
#X obj 352 149 sel 0;
#X obj 352 171 del 20;
#X msg 352 216 0;
#X obj 352 238 switch~;
#N canvas 449 243 481 385 choose_filter_type 0;
#X obj 66 38 r mtx_msg;
#X obj 115 110 r \$0-first_inlet;
#X obj 100 181 route 0 1 2;
#X obj 100 133 -;
#X obj 100 158 pack;
#X obj 100 87 unpack;
#X obj 66 62 list split 2;
#X obj 100 287 outlet;
#X text 153 286 set the type of the filter;
#X msg 100 255 lowpass \$1;
#X msg 121 233 highpass \$1;
#X msg 142 210 resonant \$1;
#X connect 0 0 6 0;
#X connect 1 0 3 1;
#X connect 2 0 9 0;
#X connect 2 1 10 0;
#X connect 2 2 11 0;
#X connect 3 0 4 0;
#X connect 4 0 2 0;
#X connect 5 0 3 0;
#X connect 5 1 4 1;
#X connect 6 1 5 0;
#X connect 9 0 7 0;
#X connect 10 0 7 0;
#X connect 11 0 7 0;
#X restore 180 148 pd choose_filter_type;
#X obj 87 170 multiFilter_abs~;
#X obj 87 77 r~ filter_sig;
#N canvas 323 110 426 531 choose_freq_input 0;
#X obj 86 205 pack f 20;
#X obj 86 227 line~;
#X obj 86 373 *~;
#X obj 232 227 t f f;
#X obj 101 305 == 0;
#X obj 101 327 pack f 20;
#X obj 101 349 line~;
#X obj 244 373 *~;
#X obj 259 327 pack f 20;
#X obj 259 349 line~;
#X obj 86 435 outlet~;
#X obj 198 26 r mtx_msg;
#X obj 198 48 list split 1;
#X obj 232 70 list split 1;
#X obj 232 160 ==;
#X obj 247 115 r \$0-first_outlet;
#X obj 247 137 + 1;
#X obj 244 302 *~;
#X obj 86 160 r filt_freq_pot;
#X obj 274 285 r~ filt_freq_sig;
#X obj 86 182 map 0 1023 20 10000;
#X obj 266 92 unpack;
#X obj 232 182 sel 1;
#X obj 232 204 f;
#X obj 261 204 loadbang;
#X connect 0 0 1 0;
#X connect 1 0 2 0;
#X connect 1 0 17 0;
#X connect 2 0 10 0;
#X connect 3 0 4 0;
#X connect 3 1 8 0;
#X connect 4 0 5 0;
#X connect 5 0 6 0;
#X connect 6 0 2 1;
#X connect 7 0 10 0;
#X connect 8 0 9 0;
#X connect 9 0 7 1;
#X connect 11 0 12 0;
#X connect 12 1 13 0;
#X connect 13 0 14 0;
#X connect 13 1 21 0;
#X connect 14 0 22 0;
#X connect 15 0 16 0;
#X connect 16 0 14 1;
#X connect 17 0 7 0;
#X connect 18 0 20 0;
#X connect 19 0 17 1;
#X connect 20 0 0 0;
#X connect 21 1 23 1;
#X connect 22 0 23 0;
#X connect 23 0 3 0;
#X connect 24 0 23 0;
#X restore 110 101 pd choose_freq_input;
#N canvas 84 86 427 485 choose_reson_input 0;
#X obj 86 195 pack f 20;
#X obj 86 217 line~;
#X obj 86 377 *~;
#X obj 232 231 t f f;
#X obj 101 309 == 0;
#X obj 101 331 pack f 20;
#X obj 101 353 line~;
#X obj 244 377 *~;
#X obj 259 331 pack f 20;
#X obj 259 353 line~;
#X obj 86 439 outlet~;
#X obj 198 29 r mtx_msg;
#X obj 198 51 list split 1;
#X obj 232 73 list split 1;
#X obj 232 163 ==;
#X obj 247 119 r \$0-first_outlet;
#X obj 244 306 *~;
#X obj 86 150 r filt_reson_pot;
#X obj 274 289 r~ filt_reson_sig;
#X obj 247 141 + 2;
#X obj 86 172 map 0 1023 0 1;
#X obj 266 95 unpack;
#X obj 232 185 sel 1;
#X obj 232 207 f;
#X obj 261 208 loadbang;
#X connect 0 0 1 0;
#X connect 1 0 2 0;
#X connect 1 0 16 0;
#X connect 2 0 10 0;
#X connect 3 0 4 0;
#X connect 3 1 8 0;
#X connect 4 0 5 0;
#X connect 5 0 6 0;
#X connect 6 0 2 1;
#X connect 7 0 10 0;
#X connect 8 0 9 0;
#X connect 9 0 7 1;
#X connect 11 0 12 0;
#X connect 12 1 13 0;
#X connect 13 0 14 0;
#X connect 13 1 21 0;
#X connect 14 0 22 0;
#X connect 15 0 19 0;
#X connect 16 0 7 0;
#X connect 17 0 20 0;
#X connect 18 0 16 1;
#X connect 19 0 14 1;
#X connect 20 0 0 0;
#X connect 21 1 23 1;
#X connect 22 0 23 0;
#X connect 23 0 3 0;
#X connect 24 0 23 0;
#X restore 133 124 pd choose_reson_input;
#X obj 352 126 t f f;
#X obj 352 193 spigot;
#X obj 405 176 == 0;
#X connect 3 0 13 0;
#X connect 4 0 5 0;
#X connect 4 1 7 0;
#X connect 5 0 14 0;
#X connect 6 0 7 0;
#X connect 8 0 9 4;
#X connect 9 0 0 0;
#X connect 9 1 1 0;
#X connect 9 2 2 0;
#X connect 10 0 9 0;
#X connect 11 0 9 1;
#X connect 12 0 9 2;
#X connect 13 0 4 0;
#X connect 13 1 15 0;
#X connect 14 0 6 0;
#X connect 15 0 14 1;
