#N canvas 94 445 734 449 10;
#X msg 49 17 devices;
#X obj 129 306 &;
#X obj 82 345 pack;
#X obj 82 367 route 0 1 2 3 4 5 6 7;
#X obj 82 396 tgl 15 0 empty empty empty 17 7 0 10 -262144 -1 -1 0
1;
#X obj 102 396 tgl 15 0 empty empty empty 17 7 0 10 -262144 -1 -1 0
1;
#X obj 122 396 tgl 15 0 empty empty empty 17 7 0 10 -262144 -1 -1 0
1;
#X obj 142 396 tgl 15 0 empty empty empty 17 7 0 10 -262144 -1 -1 0
1;
#X obj 162 396 tgl 15 0 empty empty empty 17 7 0 10 -262144 -1 -1 0
1;
#X obj 182 396 tgl 15 0 empty empty empty 17 7 0 10 -262144 -1 -1 0
1;
#X obj 202 396 tgl 15 0 empty empty empty 17 7 0 10 -262144 -1 -1 0
1;
#X obj 222 396 tgl 15 0 empty empty empty 17 7 0 10 -262144 -1 -1 0
1;
#X msg 85 76 close;
#X obj 49 178 change;
#X obj 82 245 t f f;
#X obj 129 262 swap 2;
#X obj 129 284 pow;
#X obj 49 200 t b f;
#X obj 129 328 != 0;
#X obj 49 131 serial_write analog 2;
#X obj 49 153 unpack;
#X obj 349 298 &;
#X obj 302 337 pack;
#X obj 302 359 route 0 1 2 3 4 5 6 7;
#X obj 302 388 tgl 15 0 empty empty empty 17 7 0 10 -262144 -1 -1 0
1;
#X obj 322 388 tgl 15 0 empty empty empty 17 7 0 10 -262144 -1 -1 0
1;
#X obj 342 388 tgl 15 0 empty empty empty 17 7 0 10 -262144 -1 -1 0
1;
#X obj 362 388 tgl 15 0 empty empty empty 17 7 0 10 -262144 -1 -1 0
1;
#X obj 382 388 tgl 15 0 empty empty empty 17 7 0 10 -262144 -1 -1 0
1;
#X obj 402 388 tgl 15 0 empty empty empty 17 7 0 10 -262144 -1 -1 0
1;
#X obj 422 388 tgl 15 0 empty empty empty 17 7 0 10 -262144 -1 -1 0
1;
#X obj 442 388 tgl 15 0 empty empty empty 17 7 0 10 -262144 -1 -1 0
1;
#X obj 269 170 change;
#X obj 302 237 t f f;
#X obj 349 254 swap 2;
#X obj 349 276 pow;
#X obj 269 192 t b f;
#X obj 349 320 != 0;
#X msg 73 44 open 1;
#X obj 49 109 comport 1 115200;
#X obj 269 215 loop 8;
#X obj 49 222 loop 8;
#X connect 0 0 39 0;
#X connect 1 0 18 0;
#X connect 2 0 3 0;
#X connect 3 0 4 0;
#X connect 3 1 5 0;
#X connect 3 2 6 0;
#X connect 3 3 7 0;
#X connect 3 4 8 0;
#X connect 3 5 9 0;
#X connect 3 6 10 0;
#X connect 3 7 11 0;
#X connect 12 0 39 0;
#X connect 13 0 17 0;
#X connect 14 0 2 0;
#X connect 14 1 15 0;
#X connect 15 0 16 0;
#X connect 15 1 16 1;
#X connect 16 0 1 0;
#X connect 17 0 41 0;
#X connect 17 1 1 1;
#X connect 18 0 2 1;
#X connect 19 0 20 0;
#X connect 20 0 13 0;
#X connect 20 1 32 0;
#X connect 21 0 37 0;
#X connect 22 0 23 0;
#X connect 23 0 24 0;
#X connect 23 1 25 0;
#X connect 23 2 26 0;
#X connect 23 3 27 0;
#X connect 23 4 28 0;
#X connect 23 5 29 0;
#X connect 23 6 30 0;
#X connect 23 7 31 0;
#X connect 32 0 36 0;
#X connect 33 0 22 0;
#X connect 33 1 34 0;
#X connect 34 0 35 0;
#X connect 34 1 35 1;
#X connect 35 0 21 0;
#X connect 36 0 40 0;
#X connect 36 1 21 1;
#X connect 37 0 22 1;
#X connect 38 0 39 0;
#X connect 39 0 19 0;
#X connect 40 2 33 0;
#X connect 41 2 14 0;
