#N canvas 203 328 469 352 10;
#X floatatom 110 45 5 0 0 0 - - -;
#X floatatom 177 45 5 0 0 0 - - -;
#X obj 177 66 phasor~;
#X obj 177 88 *~ 2;
#X obj 177 110 -~ 1;
#X obj 92 217 lop~;
#X obj 212 183 ggee/envgen 100 60 1 0  ;
#X obj 210 256 line~;
#X msg 210 158 bang;
#X obj 169 305 dac~;
#X floatatom 113 195 5 0 0 0 - - -;
#X obj 110 66 phasor~;
#X obj 110 88 +~;
#X obj 110 110 cos~;
#X connect 0 0 11 0;
#X connect 1 0 2 0;
#X connect 2 0 3 0;
#X connect 3 0 4 0;
#X connect 6 0 7 0;
#X connect 8 0 6 0;
#X connect 10 0 5 1;
#X connect 11 0 12 0;
#X connect 12 0 13 0;
