#N canvas 423 172 480 371 10;
#X obj 120 130 serial_write analog 16;
#X obj 120 152 unpack f f f f f f f f f f f f f f f f;
#X floatatom 120 318 5 0 0 0 - - -;
#X floatatom 135 298 5 0 0 0 - - -;
#X floatatom 150 278 5 0 0 0 - - -;
#X floatatom 165 258 5 0 0 0 - - -;
#X floatatom 180 238 5 0 0 0 - - -;
#X floatatom 195 218 5 0 0 0 - - -;
#X floatatom 210 198 5 0 0 0 - - -;
#X floatatom 225 178 5 0 0 0 - - -;
#X floatatom 240 318 5 0 0 0 - - -;
#X floatatom 255 298 5 0 0 0 - - -;
#X floatatom 270 278 5 0 0 0 - - -;
#X floatatom 285 258 5 0 0 0 - - -;
#X floatatom 300 238 5 0 0 0 - - -;
#X floatatom 315 218 5 0 0 0 - - -;
#X floatatom 330 198 5 0 0 0 - - -;
#X floatatom 345 178 5 0 0 0 - - -;
#X msg 120 31 devices;
#X obj 120 107 comport 7 115200;
#X msg 143 54 open 7;
#X msg 151 76 close;
#X connect 0 0 1 0;
#X connect 1 0 2 0;
#X connect 1 1 3 0;
#X connect 1 2 4 0;
#X connect 1 3 5 0;
#X connect 1 4 6 0;
#X connect 1 5 7 0;
#X connect 1 6 8 0;
#X connect 1 7 9 0;
#X connect 1 8 10 0;
#X connect 1 9 11 0;
#X connect 1 10 12 0;
#X connect 1 11 13 0;
#X connect 1 12 14 0;
#X connect 1 13 15 0;
#X connect 1 14 16 0;
#X connect 1 15 17 0;
#X connect 18 0 19 0;
#X connect 19 0 0 0;
#X connect 20 0 19 0;
#X connect 21 0 19 0;
