#N canvas 387 183 522 552 10;
#X declare -lib iemmatrix;
#X obj 349 85 import iemmatrix;
#X obj 172 480 dac~ 1;
#X obj 197 458 dac~ 2;
#X obj 222 433 s~ freq1;
#X obj 247 369 s~ freq2;
#X obj 190 174 r~ freq1;
#X obj 190 226 +~;
#X obj 190 248 osc~;
#X obj 250 226 +~;
#X obj 250 248 osc~;
#X obj 250 174 r~ freq2;
#X obj 172 315 mtx_*~ 4 3 20;
#X floatatom 205 204 5 0 0 0 - - -;
#X floatatom 265 204 5 0 0 0 - - -;
#X obj 228 291 adc~ 1;
#X msg 93 73 element 2 2 1;
#X msg 60 46 element 4 1 1;
#X obj 247 343 *~;
#X floatatom 276 327 5 0 0 0 - - -;
#X obj 222 409 *~;
#X floatatom 251 393 5 0 0 0 - - -;
#X msg 133 101 element 3 2 1;
#X msg 172 130 element 1 3 1;
#X connect 5 0 6 0;
#X connect 6 0 7 0;
#X connect 7 0 11 1;
#X connect 8 0 9 0;
#X connect 9 0 11 2;
#X connect 10 0 8 0;
#X connect 11 0 1 0;
#X connect 11 1 2 0;
#X connect 11 2 19 0;
#X connect 11 3 17 0;
#X connect 12 0 6 1;
#X connect 13 0 8 1;
#X connect 14 0 11 3;
#X connect 15 0 11 0;
#X connect 16 0 11 0;
#X connect 17 0 4 0;
#X connect 18 0 17 1;
#X connect 19 0 3 0;
#X connect 20 0 19 1;
#X connect 21 0 11 0;
#X connect 22 0 11 0;
