#N canvas 283 151 710 498 10;
#X declare -path ./abstractions;
#X declare -lib iemmatrix;
#X obj 114 71 declare -path ./abstractions;
#X obj 138 152 all_osc~ 1 1;
#X obj 114 92 import iemmatrix;
#X obj 113 369 s~ osc1_phase;
#X obj 142 346 s~ osc1_ndx_sig;
#X obj 172 323 s~ osc1_amp_sig;
#X obj 202 299 s~ osc2_phase;
#X obj 232 276 s~ osc2_ndx_sig;
#X obj 261 252 s~ osc2_amp_sig;
#X obj 291 379 s~ filter_sig;
#X obj 380 309 s~ trig_sig1;
#X obj 410 286 s~ trig_sig2;
#X obj 449 251 dac~;
#X obj 230 153 bl_all_osc~ 5 4;
#X obj 342 153 multi_filter~ 9 7;
#X obj 419 187 envelope~ 12 10;
#N canvas 542 112 506 357 arduino_stuff 0;
#X msg 109 27 devices;
#X msg 145 86 close;
#X msg 133 54 open 7;
#N canvas 526 130 539 622 create_mtx_msg 0;
#X obj 172 357 &;
#X obj 109 73 change;
#X obj 244 47 unpack;
#X obj 205 423 !=;
#X obj 172 401 t f f;
#X obj 172 491 pack f f f;
#X obj 172 468 spigot;
#X msg 172 513 element \$3 \$2 \$1;
#X obj 205 445 t f f;
#X obj 206 236 sel 1;
#X obj 172 379 != 0;
#X obj 310 362 pack;
#X msg 310 384 element \$2 \$1;
#X obj 298 225 * 8;
#X obj 283 287 +;
#X obj 283 309 t f f;
#X obj 331 248 t f f;
#X obj 331 112 + 1;
#X obj 298 247 + 1;
#X obj 202 334 * 2;
#X msg 187 311 1;
#X obj 172 334 1;
#X obj 172 270 t b f;
#X obj 27 34 inlet;
#X obj 244 25 inlet;
#X obj 310 406 mtx 13 13;
#X obj 172 580 outlet;
#X obj 271 147 t f f;
#X obj 109 164 f;
#X obj 109 186 sel 0 1;
#X obj 109 208 8;
#X obj 134 208 5;
#X obj 109 253 loop;
#X obj 172 535 t a a a;
#X obj 191 557 s mtx_msg;
#X obj 244 69 t b f;
#X obj 304 64 t b f;
#X msg 244 99 1;
#X obj 27 56 t b f;
#X obj 27 116 spigot;
#X obj 27 148 t b b;
#X msg 73 165 0;
#X obj 109 120 f;
#X obj 109 142 t b f;
#X obj 109 95 t f b;
#X connect 0 0 10 0;
#X connect 1 0 44 0;
#X connect 2 0 35 0;
#X connect 2 1 36 0;
#X connect 3 0 8 0;
#X connect 4 0 6 0;
#X connect 4 1 3 0;
#X connect 5 0 7 0;
#X connect 6 0 5 0;
#X connect 7 0 33 0;
#X connect 8 0 6 1;
#X connect 8 1 9 0;
#X connect 9 0 32 3;
#X connect 10 0 4 0;
#X connect 11 0 12 0;
#X connect 12 0 25 0;
#X connect 13 0 18 0;
#X connect 14 0 15 0;
#X connect 15 0 5 1;
#X connect 15 1 11 0;
#X connect 16 0 11 1;
#X connect 16 1 5 2;
#X connect 17 0 16 0;
#X connect 18 0 14 1;
#X connect 19 0 21 1;
#X connect 20 0 21 1;
#X connect 21 0 19 0;
#X connect 21 0 0 0;
#X connect 22 0 21 0;
#X connect 22 1 14 0;
#X connect 23 0 38 0;
#X connect 24 0 2 0;
#X connect 25 0 3 1;
#X connect 27 0 28 1;
#X connect 27 1 13 0;
#X connect 28 0 29 0;
#X connect 29 0 30 0;
#X connect 29 1 31 0;
#X connect 30 0 32 0;
#X connect 31 0 32 0;
#X connect 32 0 20 0;
#X connect 32 2 22 0;
#X connect 33 0 26 0;
#X connect 33 1 34 0;
#X connect 33 2 25 0;
#X connect 35 0 37 0;
#X connect 35 1 27 0;
#X connect 36 0 37 0;
#X connect 36 1 17 0;
#X connect 37 0 39 1;
#X connect 38 0 39 0;
#X connect 38 1 1 0;
#X connect 39 0 40 0;
#X connect 40 0 42 0;
#X connect 40 1 41 0;
#X connect 41 0 39 1;
#X connect 42 0 43 0;
#X connect 43 0 28 0;
#X connect 43 1 0 1;
#X connect 44 0 42 0;
#X connect 44 1 41 0;
#X restore 146 198 pd create_mtx_msg;
#X obj 109 174 list split 15;
#X obj 146 220 outlet;
#N canvas 541 265 484 360 potentiometers 0;
#X obj 114 58 unpack f f f f f f f f f f f f f f f;
#X obj 114 243 s osc1_freq;
#X obj 129 221 s osc1_ndx_pot;
#X obj 144 198 s osc1_amp_pot;
#X obj 159 175 s duty_cycle;
#X obj 174 152 s osc2_freq;
#X obj 190 130 s osc2_ndx_pot;
#X obj 205 107 s osc2_amp_pot;
#X obj 220 243 s filt_freq_pot;
#X obj 235 221 s filt_reson_pot;
#X obj 250 198 s env1_trig;
#X obj 266 175 s env1_rest;
#X obj 281 152 s env1_dur;
#X obj 114 33 inlet;
#X obj 296 130 s env2_trig;
#X obj 311 107 s env2_rest;
#X obj 327 84 s env2_dur;
#X connect 0 0 1 0;
#X connect 0 1 2 0;
#X connect 0 2 3 0;
#X connect 0 3 4 0;
#X connect 0 4 5 0;
#X connect 0 5 6 0;
#X connect 0 6 7 0;
#X connect 0 7 8 0;
#X connect 0 8 9 0;
#X connect 0 9 10 0;
#X connect 0 10 11 0;
#X connect 0 11 12 0;
#X connect 0 12 14 0;
#X connect 0 13 15 0;
#X connect 0 14 16 0;
#X connect 13 0 0 0;
#X restore 109 246 pd potentiometers;
#X obj 198 66 r pd;
#X obj 198 88 route dsp;
#N canvas 494 120 403 482 get_switches 0;
#X obj 218 175 &;
#X obj 171 214 pack;
#X obj 126 47 change;
#X obj 171 114 t f f;
#X obj 218 131 swap 2;
#X obj 218 153 pow;
#X obj 126 69 t b f;
#X obj 218 197 != 0;
#X obj 126 24 inlet;
#X obj 171 236 route 5 6 7;
#X obj 126 91 loop 5 7;
#X obj 171 371 change;
#X obj 171 393 s osc1_scale_offset;
#X obj 192 327 change;
#X obj 192 349 s osc2_scale_offset;
#X obj 213 259 change;
#X msg 213 281 dsp \$1;
#X obj 213 303 s pd;
#X connect 0 0 7 0;
#X connect 1 0 9 0;
#X connect 2 0 6 0;
#X connect 3 0 1 0;
#X connect 3 1 4 0;
#X connect 4 0 5 0;
#X connect 4 1 5 1;
#X connect 5 0 0 0;
#X connect 6 0 10 0;
#X connect 6 1 0 1;
#X connect 7 0 1 1;
#X connect 8 0 2 0;
#X connect 9 0 11 0;
#X connect 9 1 13 0;
#X connect 9 2 15 0;
#X connect 10 2 3 0;
#X connect 11 0 12 0;
#X connect 13 0 14 0;
#X connect 15 0 16 0;
#X connect 16 0 17 0;
#X restore 356 203 pd get_switches;
#X obj 322 181 list split 2;
#X obj 109 151 serial_write analog 16 digital 3 255;
#X obj 109 129 comport 7 57600;
#X connect 0 0 12 0;
#X connect 1 0 12 0;
#X connect 2 0 12 0;
#X connect 3 0 5 0;
#X connect 4 0 6 0;
#X connect 4 1 3 0;
#X connect 7 0 8 0;
#X connect 8 0 12 0;
#X connect 10 0 3 1;
#X connect 10 1 9 0;
#X connect 11 0 4 0;
#X connect 11 1 10 0;
#X connect 12 0 11 0;
#X restore 113 126 pd arduino_stuff;
#X obj 321 356 s~ filt_freq_sig;
#X obj 351 333 s~ filt_reson_sig;
#X obj 113 226 mtx_*~ 13 13 20 ............................................
;
#X connect 1 0 19 1;
#X connect 1 1 19 2;
#X connect 1 2 19 3;
#X connect 1 3 19 4;
#X connect 13 0 19 5;
#X connect 13 1 19 6;
#X connect 13 2 19 7;
#X connect 13 3 19 8;
#X connect 14 0 19 9;
#X connect 14 1 19 10;
#X connect 14 2 19 11;
#X connect 15 0 19 12;
#X connect 15 1 19 13;
#X connect 16 0 19 0;
#X connect 19 0 3 0;
#X connect 19 1 4 0;
#X connect 19 2 5 0;
#X connect 19 3 6 0;
#X connect 19 4 7 0;
#X connect 19 5 8 0;
#X connect 19 6 9 0;
#X connect 19 7 17 0;
#X connect 19 8 18 0;
#X connect 19 9 10 0;
#X connect 19 10 11 0;
#X connect 19 11 12 0;
#X connect 19 12 12 1;
