#N canvas 340 100 388 568 10;
#X declare -path ./polysynth;
#X obj 58 267 pack f f f;
#X obj 58 42 declare -path ./polysynth;
#X obj 58 468 *~;
#X obj 58 493 dac~;
#X obj 96 363 r amp;
#X obj 96 385 map 0 1023 0 1;
#X obj 96 407 pow 4;
#X obj 96 429 pack f 20;
#X obj 96 451 line~;
#N canvas 455 84 661 449 create_envelope 0;
#X obj 117 61 ggee/envgen 200 140 1 0  ;
#X obj 318 218 list prepend set;
#X obj 318 240 list trim;
#X msg 318 295 0 11.5 1 14 0.692857 56.5 0.692857 18 0;
#X obj 329 264 loadbang;
#X obj 318 317 list prepend envelope;
#X obj 318 339 list trim;
#X obj 318 361 s synth_data;
#X connect 0 1 1 0;
#X connect 1 0 2 0;
#X connect 2 0 3 0;
#X connect 3 0 5 0;
#X connect 4 0 3 0;
#X connect 5 0 6 0;
#X connect 6 0 7 0;
#X restore 58 86 pd create_envelope;
#X obj 98 290 r synth_data;
#X obj 58 163 r MIDI_note;
#N canvas 339 159 738 450 generic_data 0;
#X obj 53 21 r carrier_type;
#X msg 53 43 carrier_type \$1;
#X obj 163 21 r modulator_type;
#X msg 163 43 mod_type \$1;
#X obj 475 21 r synth_pots;
#X obj 475 43 unpack f f f f;
#X msg 475 325 tune_freq \$1;
#X msg 502 193 mod_detune \$1;
#X msg 529 148 index \$1;
#X obj 475 280 i;
#X obj 475 302 change;
#X msg 556 93 duration \$1;
#X obj 556 378 s synth_data;
#X obj 53 103 s synth_data;
#X obj 574 219 r tune_switch;
#X obj 475 236 spigot;
#X obj 29 306 r dsp_switch;
#X msg 29 329 dsp \$1;
#X obj 29 351 s pd;
#X obj 276 21 r sustain_switch;
#X msg 276 43 sustain \$1;
#X obj 475 258 map 0 1023 432 446;
#X obj 502 171 map 0 1023 0 2;
#X obj 529 125 map 0 1023 0 2;
#X obj 556 71 map 0 1023 200 5000;
#X connect 0 0 1 0;
#X connect 1 0 13 0;
#X connect 2 0 3 0;
#X connect 3 0 13 0;
#X connect 4 0 5 0;
#X connect 5 0 15 0;
#X connect 5 1 22 0;
#X connect 5 2 23 0;
#X connect 5 3 24 0;
#X connect 6 0 12 0;
#X connect 7 0 12 0;
#X connect 8 0 12 0;
#X connect 9 0 10 0;
#X connect 10 0 6 0;
#X connect 11 0 12 0;
#X connect 14 0 15 1;
#X connect 15 0 21 0;
#X connect 16 0 17 0;
#X connect 17 0 18 0;
#X connect 19 0 20 0;
#X connect 20 0 13 0;
#X connect 21 0 9 0;
#X connect 22 0 7 0;
#X connect 23 0 8 0;
#X connect 24 0 11 0;
#X restore 58 107 pd generic_data;
#N canvas 685 131 368 246 arduino_stuff 0;
#X msg 58 21 devices;
#X msg 112 71 close;
#X msg 87 44 open 7;
#X obj 58 157 s;
#X obj 58 113 comport 7 38400;
#X obj 155 49 r pd;
#X obj 155 71 route dsp;
#X obj 58 135 serial_print_extended;
#X connect 0 0 4 0;
#X connect 1 0 4 0;
#X connect 2 0 4 0;
#X connect 4 0 7 0;
#X connect 5 0 6 0;
#X connect 6 0 4 0;
#X connect 7 0 3 0;
#X connect 7 1 3 1;
#X restore 58 64 pd arduino_stuff;
#X obj 58 313 poly_synth~ 10;
#X obj 115 217 sel 64;
#X msg 115 239 127;
#X obj 58 189 poly 10 1;
#N canvas 404 267 450 300 shut_down 0;
#X obj 89 45 r shut_down;
#X obj 89 67 change;
#X obj 89 89 spigot;
#X obj 89 111 sel 1 0;
#X obj 89 133 timer;
#X obj 89 155 > 2000;
#X obj 89 177 sel 1;
#X msg 89 199 sh /etc/my_scripts/shut_down.sh;
#X obj 89 221 shell;
#X obj 204 28 loadbang;
#X obj 204 50 del 2000;
#X msg 204 72 1;
#X connect 0 0 1 0;
#X connect 1 0 2 0;
#X connect 2 0 3 0;
#X connect 3 0 4 0;
#X connect 3 1 4 1;
#X connect 4 0 5 0;
#X connect 5 0 6 0;
#X connect 6 0 7 0;
#X connect 7 0 8 0;
#X connect 9 0 10 0;
#X connect 10 0 11 0;
#X connect 11 0 2 1;
#X restore 58 128 pd shut_down;
#N canvas 273 198 641 378 filter~ 0;
#X obj 125 95 inlet~;
#X obj 125 301 *~;
#X obj 181 301 *~;
#X obj 125 348 outlet~;
#X obj 216 46 unpack f f f;
#X obj 216 98 pack f 20;
#X obj 216 120 line~;
#X obj 346 98 pack f 20;
#X obj 346 120 line~;
#X obj 456 98 pack f 20;
#X obj 456 120 line~;
#X obj 216 24 r filter_pots;
#X obj 140 243 t f f;
#X obj 140 278 == 0;
#X obj 140 197 r filter_switch;
#X obj 181 165 omniFilter_abs~ lowshelf;
#X obj 346 75 map 0 1023 0 1;
#X obj 456 75 map 0 1023 -50 50;
#X obj 216 75 map 0 1023 20 20000;
#X connect 0 0 1 0;
#X connect 0 0 15 0;
#X connect 1 0 3 0;
#X connect 2 0 3 0;
#X connect 4 0 18 0;
#X connect 4 1 16 0;
#X connect 4 2 17 0;
#X connect 5 0 6 0;
#X connect 6 0 15 1;
#X connect 7 0 8 0;
#X connect 8 0 15 2;
#X connect 9 0 10 0;
#X connect 10 0 15 3;
#X connect 11 0 4 0;
#X connect 12 0 13 0;
#X connect 12 1 2 1;
#X connect 13 0 1 1;
#X connect 14 0 12 0;
#X connect 15 0 2 0;
#X connect 16 0 7 0;
#X connect 17 0 9 0;
#X connect 18 0 5 0;
#X restore 58 337 pd filter~;
#X connect 0 0 14 0;
#X connect 2 0 3 0;
#X connect 2 0 3 1;
#X connect 4 0 5 0;
#X connect 5 0 6 0;
#X connect 6 0 7 0;
#X connect 7 0 8 0;
#X connect 8 0 2 1;
#X connect 10 0 14 1;
#X connect 11 0 17 0;
#X connect 14 0 19 0;
#X connect 15 0 16 0;
#X connect 15 1 0 2;
#X connect 16 0 0 2;
#X connect 17 0 0 0;
#X connect 17 1 0 1;
#X connect 17 2 15 0;
#X connect 19 0 2 0;
