#N canvas 208 46 865 647 10;
#X declare -lib iemmatrix;
#X msg 99 27 devices;
#X obj 246 382 &;
#X msg 135 86 close;
#X obj 195 180 change;
#X obj 195 278 loop 8;
#X obj 195 250 t b f;
#X obj 332 158 unpack;
#X obj 279 448 !=;
#X obj 246 426 t f f;
#X obj 246 493 spigot;
#X msg 246 538 element \$3 \$2 \$1;
#X obj 279 470 t f f;
#X obj 280 261 sel 1;
#X obj 246 404 != 0;
#X msg 371 409 element \$2 \$1;
#X obj 359 268 * 8;
#X obj 344 334 t f f;
#X obj 409 291 t f f;
#X obj 409 268 + 1;
#X obj 359 290 + 1;
#X obj 246 560 t a a;
#X obj 246 582 print;
#X obj 276 359 * 2;
#X msg 261 336 1;
#X obj 246 359 1;
#X obj 246 295 t b f;
#X obj 293 22 import iemmatrix;
#X obj 332 180 change;
#X obj 382 175 change;
#X obj 195 227 f;
#X obj 332 202 t b f;
#X obj 382 197 t b f;
#X obj 99 163 t b f;
#X obj 99 247 spigot;
#X msg 140 286 0;
#X obj 99 269 t b b;
#X msg 332 230 1;
#X obj 246 516 pack f 1 1;
#X obj 344 312 + 1;
#X obj 195 202 t f b;
#X obj 371 387 pack 1 1;
#X msg 123 54 open 1;
#X obj 99 119 comport 1 115200;
#X obj 631 143 utime;
#X msg 591 111 bang;
#X floatatom 681 145 8 0 0 0 - - -;
#X obj 592 143 time;
#X floatatom 509 170 5 0 0 0 - - -;
#X floatatom 576 171 5 0 0 0 - - -;
#X text 542 172 hours;
#X text 738 147 microseconds;
#X floatatom 663 170 5 0 0 0 - - -;
#X text 610 171 minutes;
#X text 698 172 seconds;
#X obj 99 141 serial_write analog 1 digital 2;
#X obj 371 431 mtx 48 16;
#X connect 0 0 42 0;
#X connect 1 0 13 0;
#X connect 2 0 42 0;
#X connect 3 0 39 0;
#X connect 4 0 23 0;
#X connect 4 2 25 0;
#X connect 5 0 4 0;
#X connect 5 1 1 1;
#X connect 6 0 27 0;
#X connect 6 1 28 0;
#X connect 7 0 11 0;
#X connect 8 0 9 0;
#X connect 8 1 7 0;
#X connect 9 0 37 0;
#X connect 10 0 20 0;
#X connect 11 0 9 1;
#X connect 11 1 12 0;
#X connect 12 0 4 3;
#X connect 13 0 8 0;
#X connect 14 0 55 0;
#X connect 15 0 19 0;
#X connect 16 0 37 1;
#X connect 16 1 40 0;
#X connect 17 0 37 2;
#X connect 17 1 40 1;
#X connect 18 0 17 0;
#X connect 19 0 38 1;
#X connect 20 0 21 0;
#X connect 20 1 55 0;
#X connect 22 0 24 1;
#X connect 23 0 24 1;
#X connect 24 0 22 0;
#X connect 24 0 1 0;
#X connect 25 0 24 0;
#X connect 25 1 38 0;
#X connect 27 0 30 0;
#X connect 28 0 31 0;
#X connect 29 0 5 0;
#X connect 30 0 36 0;
#X connect 30 1 15 0;
#X connect 31 0 36 0;
#X connect 31 1 18 0;
#X connect 32 0 33 0;
#X connect 32 1 3 0;
#X connect 33 0 35 0;
#X connect 34 0 33 1;
#X connect 35 0 29 0;
#X connect 35 1 34 0;
#X connect 36 0 33 1;
#X connect 37 0 10 0;
#X connect 38 0 16 0;
#X connect 39 0 29 0;
#X connect 39 1 34 0;
#X connect 40 0 14 0;
#X connect 41 0 42 0;
#X connect 42 0 54 0;
#X connect 43 1 45 0;
#X connect 44 0 43 0;
#X connect 44 0 46 0;
#X connect 46 0 47 0;
#X connect 46 1 48 0;
#X connect 46 2 51 0;
#X connect 54 0 32 0;
#X connect 54 1 6 0;
#X connect 55 0 7 1;
