#N canvas 360 385 559 270 10;
#N canvas 127 213 450 300 \$0-voices 0;
#X obj 100 30 synth_voice~ 1010 1;
#X obj 100 60 synth_voice~ 1010 2;
#X obj 100 90 synth_voice~ 1010 3;
#X obj 100 120 synth_voice~ 1010 4;
#X obj 100 150 synth_voice~ 1010 5;
#X obj 100 180 synth_voice~ 1010 6;
#X obj 100 210 synth_voice~ 1010 7;
#X obj 100 240 synth_voice~ 1010 8;
#X obj 100 270 synth_voice~ 1010 9;
#X obj 100 300 synth_voice~ 1010 10;
#X restore 346 76 pd \$0-voices;
#X obj 42 83 catch~ \$0-sum;
#X obj 42 222 outlet~;
#X obj 42 32 inlet midi_note_list;
#X obj 42 199 *~;
#X obj 346 32 inlet voice_num;
#X obj 216 32 inlet generic_data;
#X obj 216 54 s \$0-data;
#N canvas 418 256 379 357 \$0-voice_creation_loop 0;
#X obj 22 16 loadbang;
#X obj 22 124 loop;
#X obj 43 147 t f f;
#X obj 43 293 s pd-\$0-voices;
#X obj 43 169 + 1;
#X text 76 174 voice number;
#X obj 74 192 * 30;
#X obj 74 216 + 30;
#X text 109 218 y coordinate;
#X text 121 243 unique abstraction number;
#X msg 154 117 clear;
#X obj 30 42 inlet num_voices;
#X obj 22 74 \$1;
#X obj 43 247 pack f f \$0;
#X obj 22 100 t f b;
#X msg 43 269 obj 100 \$2 synth_voice~ \$3 \$1 \, loadbang;
#X connect 0 0 12 0;
#X connect 1 2 2 0;
#X connect 2 0 4 0;
#X connect 2 1 6 0;
#X connect 4 0 13 0;
#X connect 6 0 7 0;
#X connect 7 0 13 1;
#X connect 10 0 3 0;
#X connect 11 0 12 0;
#X connect 12 0 14 0;
#X connect 13 0 15 0;
#X connect 14 0 1 0;
#X connect 14 1 10 0;
#X connect 15 0 3 0;
#X restore 346 54 pd \$0-voice_creation_loop;
#X obj 57 167 limiter~;
#X obj 42 55 s \$0-voice-list;
#X obj 42 136 z~ 32;
#X connect 1 0 9 0;
#X connect 1 0 11 0;
#X connect 3 0 10 0;
#X connect 4 0 2 0;
#X connect 5 0 8 0;
#X connect 6 0 7 0;
#X connect 9 0 4 1;
#X connect 11 0 4 0;
