#N canvas 667 76 523 586 10;
#X obj 36 18 r \$1-voice-list;
#X obj 36 42 route \$2;
#X obj 36 211 phasor~;
#X obj 36 521 *~;
#X obj 36 545 throw~ \$1-sum;
#X obj 176 454 line~;
#X obj 191 218 *~;
#X obj 271 201 line~;
#X obj 271 180 pack f 20;
#X obj 36 235 +~;
#X obj 36 133 t f f;
#X obj 111 51 r \$1-data;
#X obj 191 125 t b f;
#X obj 36 111 mtof_tune 442;
#X obj 36 64 unpack;
#X obj 178 321 ggee/envgen 100 60 1 0  ;
#N canvas 572 205 450 300 modulator 0;
#X obj 146 28 inlet;
#X obj 146 50 phasor~;
#X obj 157 218 outlet~;
#X obj 252 32 inlet type;
#X obj 252 54 t f f f f;
#N canvas 0 22 450 300 square 0;
#X obj 149 105 <~ 0.5;
#X obj 149 127 *~ 2;
#X obj 149 149 -~ 1;
#X obj 215 109 sel 3;
#X msg 215 131 1;
#X msg 242 131 0;
#X obj 149 82 inlet~;
#X obj 215 87 inlet;
#X obj 149 173 outlet~;
#X obj 215 165 switch~;
#X connect 0 0 1 0;
#X connect 1 0 2 0;
#X connect 2 0 8 0;
#X connect 3 0 4 0;
#X connect 3 1 5 0;
#X connect 4 0 9 0;
#X connect 5 0 9 0;
#X connect 6 0 0 0;
#X connect 7 0 3 0;
#X restore 252 124 pd square;
#N canvas 0 22 450 300 sawtooth 0;
#X obj 149 113 *~ 2;
#X obj 149 135 -~ 1;
#X obj 149 90 inlet~;
#X obj 149 158 outlet~;
#X obj 208 86 inlet;
#X obj 208 108 sel 2;
#X msg 208 130 1;
#X msg 235 130 0;
#X obj 208 163 switch~;
#X connect 0 0 1 0;
#X connect 1 0 3 0;
#X connect 2 0 0 0;
#X connect 4 0 5 0;
#X connect 5 0 6 0;
#X connect 5 1 7 0;
#X connect 6 0 8 0;
#X connect 7 0 8 0;
#X restore 176 124 pd sawtooth;
#N canvas 0 22 450 300 triangle 0;
#X obj 146 93 *~ -1;
#X obj 146 115 +~ 1;
#X obj 125 137 min~;
#X obj 125 159 *~ 4;
#X obj 125 181 -~ 1;
#X obj 125 53 inlet~;
#X obj 125 206 outlet~;
#X obj 193 117 inlet;
#X obj 193 139 sel 1;
#X msg 193 163 1;
#X msg 220 163 0;
#X obj 193 196 switch~;
#X connect 0 0 1 0;
#X connect 1 0 2 1;
#X connect 2 0 3 0;
#X connect 3 0 4 0;
#X connect 4 0 6 0;
#X connect 5 0 0 0;
#X connect 5 0 2 0;
#X connect 7 0 8 0;
#X connect 8 0 9 0;
#X connect 8 1 10 0;
#X connect 9 0 11 0;
#X connect 10 0 11 0;
#X restore 100 124 pd triangle;
#N canvas 0 22 320 268 sinusoid 0;
#X obj 50 130 cos~;
#X obj 50 107 inlet~;
#X obj 50 153 outlet~;
#X obj 118 89 inlet;
#X obj 118 111 sel 0;
#X msg 118 133 1;
#X msg 145 133 0;
#X obj 118 165 switch~;
#X connect 0 0 2 0;
#X connect 1 0 0 0;
#X connect 3 0 4 0;
#X connect 4 0 5 0;
#X connect 4 1 6 0;
#X connect 5 0 7 0;
#X connect 6 0 7 0;
#X restore 23 124 pd sinusoid;
#X connect 0 0 1 0;
#X connect 1 0 8 0;
#X connect 1 0 7 0;
#X connect 1 0 6 0;
#X connect 1 0 5 0;
#X connect 3 0 4 0;
#X connect 4 0 8 1;
#X connect 4 1 7 1;
#X connect 4 2 6 1;
#X connect 4 3 5 1;
#X connect 5 0 2 0;
#X connect 6 0 2 0;
#X connect 7 0 2 0;
#X connect 8 0 2 0;
#X restore 191 195 pd modulator;
#N canvas 572 205 450 300 carrier 0;
#X obj 157 218 outlet~;
#X obj 252 32 inlet type;
#X obj 252 54 t f f f f;
#N canvas 0 22 450 300 square 0;
#X obj 149 105 <~ 0.5;
#X obj 149 127 *~ 2;
#X obj 149 149 -~ 1;
#X obj 149 82 inlet~;
#X obj 220 90 inlet;
#X obj 149 173 outlet~;
#X obj 220 113 sel 3;
#X msg 220 135 1;
#X msg 247 135 0;
#X obj 220 169 switch~;
#X connect 0 0 1 0;
#X connect 1 0 2 0;
#X connect 2 0 5 0;
#X connect 3 0 0 0;
#X connect 4 0 6 0;
#X connect 6 0 7 0;
#X connect 6 1 8 0;
#X connect 7 0 9 0;
#X connect 8 0 9 0;
#X restore 252 124 pd square;
#N canvas 0 22 450 300 sawtooth 0;
#X obj 149 89 *~ 2;
#X obj 149 111 -~ 1;
#X obj 149 66 inlet~;
#X obj 149 134 outlet~;
#X obj 239 51 inlet;
#X msg 239 99 1;
#X msg 266 99 0;
#X obj 239 133 switch~;
#X obj 239 77 sel 2;
#X connect 0 0 1 0;
#X connect 1 0 3 0;
#X connect 2 0 0 0;
#X connect 4 0 8 0;
#X connect 5 0 7 0;
#X connect 6 0 7 0;
#X connect 8 0 5 0;
#X connect 8 1 6 0;
#X restore 176 124 pd sawtooth;
#N canvas 0 22 450 300 triangle 0;
#X obj 146 93 *~ -1;
#X obj 146 115 +~ 1;
#X obj 125 137 min~;
#X obj 125 159 *~ 4;
#X obj 125 181 -~ 1;
#X obj 125 53 inlet~;
#X obj 125 204 outlet~;
#X obj 193 117 inlet;
#X msg 193 161 1;
#X msg 220 161 0;
#X obj 193 195 switch~;
#X obj 193 139 sel 1;
#X connect 0 0 1 0;
#X connect 1 0 2 1;
#X connect 2 0 3 0;
#X connect 3 0 4 0;
#X connect 4 0 6 0;
#X connect 5 0 0 0;
#X connect 5 0 2 0;
#X connect 7 0 11 0;
#X connect 8 0 10 0;
#X connect 9 0 10 0;
#X connect 11 0 8 0;
#X connect 11 1 9 0;
#X restore 100 124 pd triangle;
#N canvas 0 22 320 268 sinusoid 0;
#X obj 50 107 cos~;
#X obj 50 84 inlet~;
#X obj 50 130 outlet~;
#X obj 130 55 inlet;
#X msg 130 100 1;
#X msg 157 100 0;
#X obj 130 134 switch~;
#X obj 130 78 sel 0;
#X connect 0 0 2 0;
#X connect 1 0 0 0;
#X connect 3 0 7 0;
#X connect 4 0 6 0;
#X connect 5 0 6 0;
#X connect 7 0 4 0;
#X connect 7 1 5 0;
#X restore 23 124 pd sinusoid;
#X obj 146 50 wrap~;
#X obj 146 25 inlet~;
#X connect 1 0 2 0;
#X connect 2 0 6 1;
#X connect 2 1 5 1;
#X connect 2 2 4 1;
#X connect 2 3 3 1;
#X connect 3 0 0 0;
#X connect 4 0 0 0;
#X connect 5 0 0 0;
#X connect 6 0 0 0;
#X connect 7 0 6 0;
#X connect 7 0 5 0;
#X connect 7 0 4 0;
#X connect 7 0 3 0;
#X connect 8 0 7 0;
#X restore 36 261 pd carrier;
#X msg 351 140 duration \$1;
#N canvas 0 22 296 202 gate 0;
#X obj 49 17 inlet;
#X obj 49 72 t l l;
#X obj 49 124 spigot;
#X obj 49 146 outlet;
#X obj 152 89 spigot;
#X obj 152 111 outlet;
#X obj 158 31 inlet;
#X obj 158 53 t f f;
#X obj 82 103 == 0;
#X obj 49 39 route list float;
#X connect 0 0 9 0;
#X connect 1 0 2 0;
#X connect 1 1 4 0;
#X connect 2 0 3 0;
#X connect 4 0 5 0;
#X connect 6 0 7 0;
#X connect 7 0 8 0;
#X connect 7 1 4 1;
#X connect 8 0 2 1;
#X connect 9 0 1 0;
#X connect 9 1 4 0;
#X restore 176 399 pd gate;
#X obj 111 73 route tune_freq carrier_type mod_detune mod_type index
envelope duration sustain;
#X obj 129 250 sel 0;
#X obj 191 481 / 127;
#X obj 176 504 *~;
#X obj 176 291 t b f;
#X msg 129 272 0;
#X obj 215 425 hold_sustain 3;
#X obj 191 150 *;
#X obj 363 301 f;
#X obj 351 110 t f f;
#X obj 363 442 del;
#X msg 363 464 0;
#X obj 363 486 switch~;
#X obj 176 267 t f b;
#X obj 311 284 t b b;
#X msg 311 306 1;
#X obj 363 323 spigot;
#X obj 391 110 t f f;
#X obj 418 306 == 0;
#X connect 0 0 1 0;
#X connect 1 0 14 0;
#X connect 2 0 9 0;
#X connect 3 0 4 0;
#X connect 5 0 23 0;
#X connect 6 0 9 1;
#X connect 7 0 6 1;
#X connect 8 0 7 0;
#X connect 9 0 17 0;
#X connect 10 0 2 0;
#X connect 10 1 27 0;
#X connect 11 0 20 0;
#X connect 12 0 27 0;
#X connect 12 1 27 1;
#X connect 13 0 10 0;
#X connect 14 0 13 0;
#X connect 14 1 21 0;
#X connect 15 0 19 0;
#X connect 16 0 6 0;
#X connect 17 0 3 0;
#X connect 18 0 15 0;
#X connect 19 0 5 0;
#X connect 19 1 26 0;
#X connect 20 0 13 1;
#X connect 20 1 17 1;
#X connect 20 2 12 0;
#X connect 20 3 16 1;
#X connect 20 4 8 0;
#X connect 20 5 15 0;
#X connect 20 6 29 0;
#X connect 20 7 37 0;
#X connect 21 0 25 0;
#X connect 21 1 33 0;
#X connect 22 0 23 1;
#X connect 23 0 3 1;
#X connect 24 0 15 0;
#X connect 24 1 22 0;
#X connect 25 0 19 0;
#X connect 26 0 5 0;
#X connect 26 1 30 0;
#X connect 27 0 16 0;
#X connect 28 0 36 0;
#X connect 29 0 18 0;
#X connect 29 1 28 1;
#X connect 30 0 31 0;
#X connect 31 0 32 0;
#X connect 33 0 24 0;
#X connect 33 1 34 0;
#X connect 34 0 35 0;
#X connect 34 1 28 0;
#X connect 35 0 32 0;
#X connect 36 0 30 0;
#X connect 37 0 19 1;
#X connect 37 1 38 0;
#X connect 38 0 36 1;
